<?xml version="1.0" encoding="UTF-8"?>
<svg version="1.1" xmlns="http://www.w3.org/2000/svg" width="225" height="225">
<path d="M0 0 C2.8125 0.0625 2.8125 0.0625 6 1 C11.20367994 7.07095993 12.47068811 13.91972282 12.3203125 21.70703125 C9.26740567 53.09240264 -9.90613569 82.68032776 -32.07421875 104.0859375 C-34.46390786 106.41156998 -36.52651986 108.85471194 -38.5625 111.5 C-42.64551096 116.27195573 -48.00453156 118.46030772 -54 120 C-58.82646621 120.2685296 -61.96760289 119.68826474 -66 117 C-66.71091174 113.03920603 -65.74673023 110.1322172 -64.3125 106.5 C-56.99972554 87.37228033 -54.91777861 66.80883836 -54.625 46.5 C-54.59881592 45.41364258 -54.57263184 44.32728516 -54.5456543 43.20800781 C-54.52854498 34.9625834 -55.8815674 27.83121719 -61.1875 21.3125 C-65.37752189 19.35715645 -68.62920523 19.61816798 -73 21 C-78.77479495 24.03694396 -81.69064768 29.09869951 -84.1171875 34.98828125 C-85.74457609 40.54012463 -86.45569091 46.65753375 -84.08984375 52.08984375 C-82.9445518 53.92204795 -82.9445518 53.92204795 -81 56 C-77.33397116 55.75004349 -75.53335243 55.56611112 -72.96484375 52.83984375 C-70.91986303 49.88417579 -69.61755658 47.09292094 -68.3125 43.75 C-66.07847082 38.07847082 -66.07847082 38.07847082 -65 37 C-59.62294689 36.53243016 -59.62294689 36.53243016 -57.30859375 38.26953125 C-56 40 -56 40 -55.9375 43.9375 C-57.35611353 53.28814616 -62.43069569 62.29801305 -70 68 C-75.52253558 71.23016232 -80.7391176 71.98118306 -87 71 C-94.47985746 68.48810757 -101.33050632 64.03390237 -105.09375 56.9375 C-107.62417129 50.37714851 -108.36819037 43.16791326 -106.15625 36.4296875 C-99.60843648 22.31649485 -88.18051652 12.06249605 -74 6 C-66.85482363 3.61827454 -58.36531904 3.85964686 -51.5625 7.125 C-50.01530819 8.04016901 -48.49154696 8.99669323 -47 10 C-46.36578125 10.39960937 -45.7315625 10.79921875 -45.078125 11.2109375 C-37.74269595 16.56644986 -33.32262055 25.96126855 -31.5625 34.6875 C-30.22655824 43.27971487 -31.02093374 52.1403824 -31.8125 60.75 C-31.89870605 61.70213379 -31.98491211 62.65426758 -32.07373047 63.63525391 C-32.81664181 71.25106083 -34.10047834 78.57920206 -36 86 C-26.59545333 77.00989098 -22.1992904 65.19698035 -17.13842773 53.44238281 C-14.43381797 47.17730371 -11.58867369 41.05161042 -8.4375 35 C-4.88944364 28.06007464 -3.33720753 22.18614909 -2.48828125 14.4921875 C-2.39659668 13.67411621 -2.30491211 12.85604492 -2.21044922 12.01318359 C-2.03013943 10.35297884 -1.85842286 8.69181569 -1.69580078 7.02978516 C-1.10355322 1.10355322 -1.10355322 1.10355322 0 0 Z " fill="#51AE78" transform="translate(152,51)"/>
<path d="M0 0 C2.8125 0.0625 2.8125 0.0625 6 1 C11.20367994 7.07095993 12.47068811 13.91972282 12.3203125 21.70703125 C9.26740567 53.09240264 -9.90613569 82.68032776 -32.07421875 104.0859375 C-34.46390786 106.41156998 -36.52651986 108.85471194 -38.5625 111.5 C-43.17586035 116.94376521 -50.22010244 119.55476053 -57.18359375 120.375 C-60 120 -60 120 -61.875 118 C-62.24625 117.34 -62.6175 116.68 -63 116 C-62.29875 115.98582031 -61.5975 115.97164063 -60.875 115.95703125 C-53.949804 115.6088896 -49.48678858 114.26051492 -44 110 C-44.6290625 110.3609375 -45.258125 110.721875 -45.90625 111.09375 C-51.6316918 114.19790519 -55.49166252 115.60262384 -62 115 C-62.33 114.34 -62.66 113.68 -63 113 C-62.29296875 110.93359375 -62.29296875 110.93359375 -61.1875 108.4375 C-59.17636195 103.65669778 -57.98440838 99.08610994 -57 94 C-57.33 94 -57.66 94 -58 94 C-57.67 91.03 -57.34 88.06 -57 85 C-56.34 85 -55.68 85 -55 85 C-52.49452242 69.77253434 -52.36980093 54.39333959 -52 39 C-51.01 39 -50.02 39 -49 39 C-48.98018066 39.62567871 -48.96036133 40.25135742 -48.93994141 40.89599609 C-48.84485774 43.72276519 -48.73511254 46.54877815 -48.625 49.375 C-48.5940625 50.35984375 -48.563125 51.3446875 -48.53125 52.359375 C-48.49257812 53.30039063 -48.45390625 54.24140625 -48.4140625 55.2109375 C-48.3826416 56.08024902 -48.3512207 56.94956055 -48.31884766 57.84521484 C-48.18770567 60.20961794 -48.18770567 60.20961794 -46 62 C-45.67 62 -45.34 62 -45 62 C-45 64.64 -45 67.28 -45 70 C-45.66 70 -46.32 70 -47 70 C-47.33 71.32 -47.66 72.64 -48 74 C-47.34 74.33 -46.68 74.66 -46 75 C-45.67 75.99 -45.34 76.98 -45 78 C-43.36983163 76.90586687 -43.36983163 76.90586687 -42 75 C-41.71151238 71.9314814 -41.71151238 71.9314814 -41.9375 68.5625 C-42.12794612 64.27013742 -42.09269659 61.73312541 -40 58 C-38.66875609 53.17754691 -38.66363258 48.1587096 -38.4375 43.1875 C-38.39431641 42.30384766 -38.35113281 41.42019531 -38.30664062 40.50976562 C-38.20108464 38.34000377 -38.10008929 36.1700209 -38 34 C-37.67 34 -37.34 34 -37 34 C-36.67 37.63 -36.34 41.26 -36 45 C-35.67 43.02 -35.34 41.04 -35 39 C-31.91819869 43.62270197 -31.80656549 47.4281204 -31.8125 52.8125 C-31.8137085 53.94667358 -31.8137085 53.94667358 -31.81494141 55.10375977 C-31.92710356 65.57992469 -33.78730452 75.7839379 -36 86 C-26.33611363 77.80033883 -22.01181318 64.76153694 -17.13842773 53.44238281 C-14.43381797 47.17730371 -11.58867369 41.05161042 -8.4375 35 C-4.88944364 28.06007464 -3.33720753 22.18614909 -2.48828125 14.4921875 C-2.39659668 13.67411621 -2.30491211 12.85604492 -2.21044922 12.01318359 C-2.03013943 10.35297884 -1.85842286 8.69181569 -1.69580078 7.02978516 C-1.10355322 1.10355322 -1.10355322 1.10355322 0 0 Z " fill="#2F6F56" transform="translate(152,51)"/>
<path d="M0 0 C0.33 0 0.66 0 1 0 C1.69509516 21.31482578 0.25652974 40.71283958 -5.1640625 61.47265625 C-6.15373376 65.04452495 -6.15373376 65.04452495 -6 69 C0.34424273 61.6856115 6.03445928 54.35263141 11 46 C11.33 46.99 11.66 47.98 12 49 C12.99 49 13.98 49 15 49 C15 49.33 15 49.66 15 50 C15.66 50 16.32 50 17 50 C11.46894889 62.38724988 -0.96225798 74.4106122 -13.1484375 80.015625 C-17.03889671 81.35863284 -19.93249351 81.46932767 -24 81 C-24.33 80.34 -24.66 79.68 -25 79 C-24.29296875 76.93359375 -24.29296875 76.93359375 -23.1875 74.4375 C-21.17636195 69.65669778 -19.98440838 65.08610994 -19 60 C-19.33 60 -19.66 60 -20 60 C-19.67 57.03 -19.34 54.06 -19 51 C-18.34 51 -17.68 51 -17 51 C-14.49452242 35.77253434 -14.36980093 20.39333959 -14 5 C-13.01 5 -12.02 5 -11 5 C-10.98018066 5.62567871 -10.96036133 6.25135742 -10.93994141 6.89599609 C-10.84485774 9.72276519 -10.73511254 12.54877815 -10.625 15.375 C-10.5940625 16.35984375 -10.563125 17.3446875 -10.53125 18.359375 C-10.49257812 19.30039063 -10.45390625 20.24140625 -10.4140625 21.2109375 C-10.3826416 22.08024902 -10.3512207 22.94956055 -10.31884766 23.84521484 C-10.18770567 26.20961794 -10.18770567 26.20961794 -8 28 C-7.67 28 -7.34 28 -7 28 C-7 30.64 -7 33.28 -7 36 C-7.66 36 -8.32 36 -9 36 C-9.33 37.32 -9.66 38.64 -10 40 C-9.34 40.33 -8.68 40.66 -8 41 C-7.67 41.99 -7.34 42.98 -7 44 C-5.36983163 42.90586687 -5.36983163 42.90586687 -4 41 C-3.71151238 37.9314814 -3.71151238 37.9314814 -3.9375 34.5625 C-4.12794612 30.27013742 -4.09269659 27.73312541 -2 24 C-0.66875609 19.17754691 -0.66363258 14.1587096 -0.4375 9.1875 C-0.39431641 8.30384766 -0.35113281 7.42019531 -0.30664062 6.50976562 C-0.20108464 4.34000377 -0.10008929 2.1700209 0 0 Z " fill="#143E45" transform="translate(114,85)"/>
<path d="M0 0 C3 2.5625 3 2.5625 5 5 C4.67 5.66 4.34 6.32 4 7 C3.195625 6.154375 2.39125 5.30875 1.5625 4.4375 C-1.15378233 2.19528581 -2.91589153 1.60747485 -6.4375 1.8125 C-11.56075071 2.7682661 -14.7788531 4.93959647 -18 9 C-22.606295 16.23013392 -24.40119873 23.48120769 -23 32 C-21.91356625 34.49460109 -20.82841224 35.94303623 -19 38 C-15.33397116 37.75004349 -13.53335243 37.56611112 -10.96484375 34.83984375 C-8.91986303 31.88417579 -7.61755658 29.09292094 -6.3125 25.75 C-4.07847082 20.07847082 -4.07847082 20.07847082 -3 19 C2.37705311 18.53243016 2.37705311 18.53243016 4.69140625 20.26953125 C6 22 6 22 6.0625 25.9375 C4.5985132 35.58721945 -0.61601485 43.79570479 -8 50 C-8.99 49.505 -8.99 49.505 -10 49 C-9.505 48.01 -9.505 48.01 -9 47 C-10.299375 47.144375 -11.59875 47.28875 -12.9375 47.4375 C-13.66839844 47.51871094 -14.39929688 47.59992188 -15.15234375 47.68359375 C-17.01140229 47.81886614 -17.01140229 47.81886614 -18 49 C-23.98081533 49.5856919 -28.86412039 49.42391974 -34 46 C-34.33 45.34 -34.66 44.68 -35 44 C-36.175625 43.38125 -36.175625 43.38125 -37.375 42.75 C-40.78964503 40.47356998 -41.65878522 38.88246384 -43 35 C-43.23038535 31.6493956 -43.17886242 28.35201423 -43 25 C-42.01 25 -41.02 25 -40 25 C-39.34 27.64 -38.68 30.28 -38 33 C-37.34 32.34 -36.68 31.68 -36 31 C-35.34 31 -34.68 31 -34 31 C-33.81824219 29.73542969 -33.81824219 29.73542969 -33.6328125 28.4453125 C-33.38144531 26.80175781 -33.38144531 26.80175781 -33.125 25.125 C-32.96257813 24.03445312 -32.80015625 22.94390625 -32.6328125 21.8203125 C-32 19 -32 19 -30 17 C-28.68 18.65 -27.36 20.3 -26 22 C-25.85304688 21.45472656 -25.70609375 20.90945312 -25.5546875 20.34765625 C-23.18384365 12.37671573 -19.87390852 5.39931877 -12.625 0.875 C-7.90104252 -1.41540362 -5.02622814 -1.50786844 0 0 Z " fill="#909779" transform="translate(90,69)"/>
<path d="M0 0 C2.8125 0.0625 2.8125 0.0625 6 1 C11.27237649 7.1511059 12.44548197 14.05734616 12.3359375 21.93359375 C11.72442006 27.5154681 9.87654766 32.73058715 8 38 C7.01 38 6.02 38 5 38 C4.34 39.65 3.68 41.3 3 43 C1.67994824 39.03984471 2.6600696 37.08818675 3.875 33.125 C5.92889149 26.36008467 7.12879808 20.78139455 7.0625 13.6875 C7.05347656 12.43324219 7.04445312 11.17898437 7.03515625 9.88671875 C7.02355469 8.93410156 7.01195312 7.98148438 7 7 C6.34 7 5.68 7 5 7 C5.01160156 7.88300781 5.02320313 8.76601563 5.03515625 9.67578125 C5.18382353 29.44852941 5.18382353 29.44852941 2 39 C1.34 39 0.68 39 0 39 C0.0825 39.825 0.165 40.65 0.25 41.5 C-0.07235989 46.01303847 -1.79294651 49.11795056 -4 53 C-5.32 52.01 -6.64 51.02 -8 50 C-7.67 48.35 -7.34 46.7 -7 45 C-6.34 45 -5.68 45 -5 45 C-5 42.69 -5 40.38 -5 38 C-5.680625 38.928125 -5.680625 38.928125 -6.375 39.875 C-8 42 -8 42 -10 44 C-10.73113672 45.41914011 -11.41094156 46.86508675 -12.05859375 48.32421875 C-12.44466797 49.18853516 -12.83074219 50.05285156 -13.22851562 50.94335938 C-13.62748047 51.84892578 -14.02644531 52.75449219 -14.4375 53.6875 C-14.83259766 54.57373047 -15.22769531 55.45996094 -15.63476562 56.37304688 C-17.34341561 60.21395557 -19.03311418 64.06175012 -20.6796875 67.9296875 C-22.00765629 71.01780428 -23.46784915 74.00865787 -25 77 C-25.99 76.67 -26.98 76.34 -28 76 C-27.5153125 75.05382812 -27.030625 74.10765625 -26.53125 73.1328125 C-22.42424435 65.05125187 -18.56295429 56.90657121 -14.94482422 48.59448242 C-13.10539523 44.39598347 -11.16635677 40.28699952 -9.05175781 36.22021484 C-3.98557972 26.47489544 -2.75198786 17.83100018 -1.69604492 7.03027344 C-1.10321375 1.10321375 -1.10321375 1.10321375 0 0 Z " fill="#2CAE7F" transform="translate(152,51)"/>
<path d="M0 0 C7.08978244 3.97295356 10.25654893 9.41192758 12.8203125 16.97265625 C14.22172969 22.04295215 14.30801532 26.87190339 14.0078125 32.09765625 C13.6778125 32.09765625 13.3478125 32.09765625 13.0078125 32.09765625 C12.99322998 32.65936523 12.97864746 33.22107422 12.96362305 33.79980469 C12.6588587 44.41809603 12.10948441 54.89948565 10.5078125 65.41015625 C10.37721436 66.26899414 10.24661621 67.12783203 10.11206055 68.01269531 C9.15215018 73.95331857 9.15215018 73.95331857 8.0078125 75.09765625 C7.87301421 76.55347775 7.77590227 78.0128302 7.6953125 79.47265625 C7.17107262 85.4455533 5.21630901 90.5672129 3.0078125 96.09765625 C2.6778125 97.08765625 2.3478125 98.07765625 2.0078125 99.09765625 C8.51659291 99.7003211 12.24699971 98.32635582 17.90625 95.09375 C18.59976563 94.76503906 19.29328125 94.43632812 20.0078125 94.09765625 C20.9978125 94.59265625 20.9978125 94.59265625 22.0078125 95.09765625 C15.59910209 99.4727049 10.81582281 101.84578495 3.0078125 102.09765625 C3.5028125 103.08765625 3.5028125 103.08765625 4.0078125 104.09765625 C-0.8671875 103.22265625 -0.8671875 103.22265625 -1.9921875 102.09765625 C-2.51601565 98.11656233 -1.75617183 95.2380726 -0.3046875 91.59765625 C8.51564442 68.5266813 15.45002519 31.93294938 6.3359375 8.28125 C4.95751668 6.014964 4.02945592 4.94755584 1.6953125 3.72265625 C-3.25289581 2.88397688 -7.04880416 2.7845594 -11.3046875 5.66015625 C-11.8615625 6.13453125 -12.4184375 6.60890625 -12.9921875 7.09765625 C-13.6521875 7.09765625 -14.3121875 7.09765625 -14.9921875 7.09765625 C-15.270625 7.66742188 -15.5490625 8.2371875 -15.8359375 8.82421875 C-16.98630545 11.08609087 -18.2266959 13.27347877 -19.4921875 15.47265625 C-21.43070142 18.932246 -22.91070596 22.26331262 -23.9921875 26.09765625 C-24.6521875 25.43765625 -25.3121875 24.77765625 -25.9921875 24.09765625 C-26.3221875 26.73765625 -26.6521875 29.37765625 -26.9921875 32.09765625 C-27.3221875 32.09765625 -27.6521875 32.09765625 -27.9921875 32.09765625 C-28.48217602 24.053678 -28.0237486 18.13532911 -23.9921875 11.09765625 C-23.4353125 10.04578125 -22.8784375 8.99390625 -22.3046875 7.91015625 C-16.58783279 0.95722484 -8.82566668 -3.99750785 0 0 Z " fill="#D0CDB8" transform="translate(87.9921875,65.90234375)"/>
<path d="M0 0 C1.54719181 0.91516901 3.07095304 1.87169323 4.5625 2.875 C5.19671875 3.27460937 5.8309375 3.67421875 6.484375 4.0859375 C13.81980405 9.44144986 18.23987945 18.83626855 20 27.5625 C20.69749653 32.66247463 20.76311626 37.7369946 20.5625 42.875 C20.2325 42.875 19.9025 42.875 19.5625 42.875 C18.5725 38.915 18.5725 38.915 17.5625 34.875 C16.32490177 38.58779469 16.20641103 42.18806346 16 46.0625 C15.93522461 47.18688477 15.93522461 47.18688477 15.86914062 48.33398438 C15.76327315 50.18078375 15.6624024 52.02786834 15.5625 53.875 C15.2325 53.875 14.9025 53.875 14.5625 53.875 C14.54791748 53.0185791 14.53333496 52.1621582 14.51831055 51.27978516 C14.4566919 48.05514861 14.38244004 44.83110122 14.30004883 41.60693359 C14.26711081 40.22032345 14.2389856 38.83358923 14.21606445 37.44677734 C14.17755788 22.40129829 14.17755788 22.40129829 7.3125 9.5 C6.77109375 8.89414063 6.2296875 8.28828125 5.671875 7.6640625 C-0.22732443 2.66066743 -4.72492964 1.19104921 -12.3125 1.375 C-13.10970459 1.38708496 -13.90690918 1.39916992 -14.72827148 1.41162109 C-20.7366783 1.61458703 -25.33400375 2.57877808 -30.4375 5.875 C-31.19160156 6.29910156 -31.94570312 6.72320312 -32.72265625 7.16015625 C-42.25336307 12.87221593 -46.81947002 20.17778228 -49.73046875 30.78125 C-50.57970407 34.49724101 -51.09256679 38.08073473 -51.4375 41.875 C-51.8396875 42.8959375 -51.8396875 42.8959375 -52.25 43.9375 C-52.58756812 47.42570392 -50.48611699 50.20843953 -48.4375 52.875 C-46.35298164 54.3412686 -46.35298164 54.3412686 -44.4375 54.875 C-44.4375 55.535 -44.4375 56.195 -44.4375 56.875 C-39.13744154 59.10660356 -34.10696971 59.3341096 -28.4375 58.875 C-28.1075 58.545 -27.7775 58.215 -27.4375 57.875 C-25.75566052 57.64212992 -24.0662584 57.46235834 -22.375 57.3125 C-21.45589844 57.22871094 -20.53679687 57.14492187 -19.58984375 57.05859375 C-18.87957031 56.99800781 -18.16929688 56.93742187 -17.4375 56.875 C-18.81989711 59.63979423 -19.8637245 61.50987014 -22.5 63.1875 C-30.18032473 64.98502281 -36.20206045 64.29518777 -43.109375 60.41796875 C-49.05941032 56.47457286 -53.1046701 52.33081328 -54.99609375 45.32421875 C-56.89176114 34.80578112 -54.63672994 27.99228176 -48.67578125 19.30859375 C-37.87512923 4.95884309 -18.44123353 -8.8517921 0 0 Z " fill="#D4ECCF" transform="translate(100.4375,58.125)"/>
<path d="M0 0 C0.33 0 0.66 0 1 0 C1.4266864 17.10191907 1.73861525 33.39369208 -3 50 C-3.66 50 -4.32 50 -5 50 C-5.10957031 50.62648437 -5.21914062 51.25296875 -5.33203125 51.8984375 C-5.49058594 52.71570313 -5.64914063 53.53296875 -5.8125 54.375 C-5.96332031 55.18710938 -6.11414063 55.99921875 -6.26953125 56.8359375 C-7 59 -7 59 -10 61 C-10.66 60.34 -11.32 59.68 -12 59 C-14.60280568 59.32041397 -14.60280568 59.32041397 -17 60 C-17.33 59.34 -17.66 58.68 -18 58 C-18.66 58.66 -19.32 59.32 -20 60 C-19.67 57.03 -19.34 54.06 -19 51 C-18.34 51 -17.68 51 -17 51 C-14.49452242 35.77253434 -14.36980093 20.39333959 -14 5 C-13.01 5 -12.02 5 -11 5 C-10.98018066 5.62567871 -10.96036133 6.25135742 -10.93994141 6.89599609 C-10.84485774 9.72276519 -10.73511254 12.54877815 -10.625 15.375 C-10.5940625 16.35984375 -10.563125 17.3446875 -10.53125 18.359375 C-10.49257812 19.30039063 -10.45390625 20.24140625 -10.4140625 21.2109375 C-10.3826416 22.08024902 -10.3512207 22.94956055 -10.31884766 23.84521484 C-10.18770567 26.20961794 -10.18770567 26.20961794 -8 28 C-7.67 28 -7.34 28 -7 28 C-7 30.64 -7 33.28 -7 36 C-7.66 36 -8.32 36 -9 36 C-9.33 37.32 -9.66 38.64 -10 40 C-9.34 40.33 -8.68 40.66 -8 41 C-7.67 41.99 -7.34 42.98 -7 44 C-5.36983163 42.90586687 -5.36983163 42.90586687 -4 41 C-3.71151238 37.9314814 -3.71151238 37.9314814 -3.9375 34.5625 C-4.12794612 30.27013742 -4.09269659 27.73312541 -2 24 C-0.66875609 19.17754691 -0.66363258 14.1587096 -0.4375 9.1875 C-0.39431641 8.30384766 -0.35113281 7.42019531 -0.30664062 6.50976562 C-0.20108464 4.34000377 -0.10008929 2.1700209 0 0 Z " fill="#165553" transform="translate(114,85)"/>
<path d="M0 0 C3.375 0.6875 3.375 0.6875 7 2 C9.55618513 6.30428592 9.30639625 10.83440091 9.25 15.6875 C9.24613281 16.48462402 9.24226563 17.28174805 9.23828125 18.10302734 C9.15337933 23.90112063 8.57643913 29.39801095 7 35 C6.67 35 6.34 35 6 35 C6.04640625 35.80824219 6.0928125 36.61648437 6.140625 37.44921875 C6.43910806 46.2864494 6.43910806 46.2864494 4 50.25 C3.34 50.8275 2.68 51.405 2 52 C-1.06603774 46.72641509 -1.06603774 46.72641509 -0.75 43.25 C0 41 0 41 1 39 C0.60616206 36.71573994 -0.0846455 34.80601733 -1.01269531 32.67919922 C-2.64053597 28.26180965 -2.55883543 23.79311537 -2.75 19.125 C-2.80542969 18.15691406 -2.86085938 17.18882813 -2.91796875 16.19140625 C-3.1664297 10.6575032 -2.956674 6.20361854 -1 1 C-0.67 0.67 -0.34 0.34 0 0 Z " fill="#239173" transform="translate(105,79)"/>
<path d="M0 0 C0.33 0 0.66 0 1 0 C1.07347656 1.12148437 1.07347656 1.12148437 1.1484375 2.265625 C1.22320312 3.25046875 1.29796875 4.2353125 1.375 5.25 C1.44460937 6.22453125 1.51421875 7.1990625 1.5859375 8.203125 C1.99001332 10.93254281 2.67377355 12.61685746 4 15 C4.4640625 16.5159375 4.4640625 16.5159375 4.9375 18.0625 C6.00319167 21.00882403 6.57969816 22.12122688 9 24 C11.14742446 24.36207824 11.14742446 24.36207824 13.4375 24.1875 C14.19933594 24.16042969 14.96117188 24.13335937 15.74609375 24.10546875 C16.86177734 24.05326172 16.86177734 24.05326172 18 24 C19.32 24 20.64 24 22 24 C20.80491401 27.71804531 18.53143047 29.44112336 15.12890625 31.23828125 C9.79089512 33.14821184 4.63874392 32.63249765 -0.5625 30.625 C-3 29 -3 29 -4 27 C-4.78375 26.5875 -5.5675 26.175 -6.375 25.75 C-9.78964503 23.47356998 -10.65878522 21.88246384 -12 18 C-12.23038535 14.6493956 -12.17886242 11.35201423 -12 8 C-11.01 8 -10.02 8 -9 8 C-8.34 10.64 -7.68 13.28 -7 16 C-6.34 15.34 -5.68 14.68 -5 14 C-4.34 14 -3.68 14 -3 14 C-2.86722656 13.15695313 -2.73445313 12.31390625 -2.59765625 11.4453125 C-2.42105469 10.34960938 -2.24445312 9.25390625 -2.0625 8.125 C-1.88847656 7.03445312 -1.71445312 5.94390625 -1.53515625 4.8203125 C-1 2 -1 2 0 0 Z " fill="#248469" transform="translate(59,86)"/>
<path d="M0 0 C5.42564088 4.3038839 7.98968993 10.22297628 9 17 C8.56640625 19.30078125 8.56640625 19.30078125 8 21 C6 18 6 18 5 16 C1.97065509 15.34227572 1.97065509 15.34227572 -1 15 C-1.99 17.64 -2.98 20.28 -4 23 C-5.5216893 20.08455103 -6.72661921 17.14224849 -7.875 14.0625 C-9.76280172 9.29036183 -12.04829342 5.88200277 -15.75 2.3125 C-17 1 -17 1 -17 -1 C-20.63 -1.33 -24.26 -1.66 -28 -2 C-21.34808452 -8.65191548 -7.09964425 -4.08540932 0 0 Z " fill="#3BBC82" transform="translate(106,65)"/>
<path d="M0 0 C5.30506637 2.97283908 8.60987305 6.48523763 11.0078125 12.09765625 C11.99646113 15.68150752 12.57542821 18.82441631 11.01171875 22.33203125 C10.68042969 22.9146875 10.34914062 23.49734375 10.0078125 24.09765625 C9.72808594 22.83308594 9.44835937 21.56851563 9.16015625 20.265625 C8.75675027 18.6050934 8.35171671 16.9449566 7.9453125 15.28515625 C7.67557617 14.03508789 7.67557617 14.03508789 7.40039062 12.75976562 C6.33809622 8.24062337 6.33809622 8.24062337 3.3918457 4.84960938 C-0.9972487 2.85716466 -4.39028097 2.8820583 -8.9921875 4.09765625 C-11.25672823 5.56536896 -11.25672823 5.56536896 -12.9921875 7.09765625 C-13.6521875 7.09765625 -14.3121875 7.09765625 -14.9921875 7.09765625 C-15.270625 7.66742188 -15.5490625 8.2371875 -15.8359375 8.82421875 C-16.98630545 11.08609087 -18.2266959 13.27347877 -19.4921875 15.47265625 C-21.43070142 18.932246 -22.91070596 22.26331262 -23.9921875 26.09765625 C-24.6521875 25.43765625 -25.3121875 24.77765625 -25.9921875 24.09765625 C-26.3221875 26.73765625 -26.6521875 29.37765625 -26.9921875 32.09765625 C-27.3221875 32.09765625 -27.6521875 32.09765625 -27.9921875 32.09765625 C-28.48217602 24.053678 -28.0237486 18.13532911 -23.9921875 11.09765625 C-23.4353125 10.04578125 -22.8784375 8.99390625 -22.3046875 7.91015625 C-16.58783279 0.95722484 -8.82566668 -3.99750785 0 0 Z " fill="#E7EFCE" transform="translate(87.9921875,65.90234375)"/>
<path d="M0 0 C3.08180478 4.62270717 3.19343585 8.42809491 3.1875 13.8125 C3.18669434 14.56716553 3.18588867 15.32183105 3.18505859 16.09936523 C3.07958252 25.93656038 1.65191236 35.52888441 -1 45 C-1.66 45 -2.32 45 -3 45 C-3 44.34 -3 43.68 -3 43 C-3.66 43 -4.32 43 -5 43 C-5.66 48.61 -6.32 54.22 -7 60 C-5.35 58.02 -3.7 56.04 -2 54 C-2 57.75973885 -2.96542407 58.45677629 -5.4375 61.1875 C-6.39462891 62.26064453 -6.39462891 62.26064453 -7.37109375 63.35546875 C-7.90863281 63.89816406 -8.44617188 64.44085938 -9 65 C-9.33 65 -9.66 65 -10 65 C-9.41448948 57.32712637 -8.11493072 49.90632569 -6.5625 42.375 C-6.34529297 41.29476562 -6.12808594 40.21453125 -5.90429688 39.1015625 C-4.99318259 34.61439303 -4.06761676 30.15575712 -2.875 25.734375 C-1.93538616 21.72423735 -1.59939626 17.97373934 -1.4375 13.875 C-1.22757858 9.18526623 -0.87117952 4.62229135 0 0 Z " fill="#A09F80" transform="translate(117,90)"/>
<path d="M0 0 C3.125 0.25 3.125 0.25 4.81640625 1.51953125 C6.125 3.25 6.125 3.25 6.1875 7.1875 C5.29924729 13.44658302 2.14905852 18.78449973 -0.875 24.25 C-2.195 23.59 -3.515 22.93 -4.875 22.25 C-4.875 21.26 -4.875 20.27 -4.875 19.25 C-5.865 19.25 -6.855 19.25 -7.875 19.25 C-7.545 17.93 -7.215 16.61 -6.875 15.25 C-7.205 15.25 -7.535 15.25 -7.875 15.25 C-6.37544763 0.55438675 -6.37544763 0.55438675 0 0 Z " fill="#7B996E" transform="translate(89.875,87.75)"/>
<path d="M0 0 C0.33 0 0.66 0 1 0 C1.36923077 6.52307692 1.36923077 6.52307692 -0.5 8.9375 C-0.995 9.288125 -1.49 9.63875 -2 10 C-1.67 10.7425 -1.34 11.485 -1 12.25 C0 15 0 15 0 19 C-0.66 19 -1.32 19 -2 19 C-1.87625 20.2375 -1.87625 20.2375 -1.75 21.5 C-2.06455907 25.90382701 -3.38871657 29.42157456 -6 33 C-7.953125 34.296875 -7.953125 34.296875 -10 35 C-10.99 34.67 -11.98 34.34 -13 34 C-12.41196203 30.97580475 -11.77321882 27.98241547 -11 25 C-12.485 27.475 -12.485 27.475 -14 30 C-14.33 29.34 -14.66 28.68 -15 28 C-14.10375977 25.56982422 -14.10375977 25.56982422 -12.69140625 22.5546875 C-12.19189453 21.47832031 -11.69238281 20.40195313 -11.17773438 19.29296875 C-10.64470703 18.16503906 -10.11167969 17.03710938 -9.5625 15.875 C-9.03333984 14.73933594 -8.50417969 13.60367188 -7.95898438 12.43359375 C-6.6463123 9.6190356 -5.32638724 6.80811429 -4 4 C-3.34 4 -2.68 4 -2 4 C-1.34 2.68 -0.68 1.36 0 0 Z " fill="#208B6E" transform="translate(147,87)"/>
<path d="M0 0 C0.99 0 1.98 0 3 0 C2.60989472 2.808758 2.29613966 4.62382392 0.52124023 6.87841797 C-1.17976236 9.25070372 -1.57743598 10.83299297 -2.02734375 13.6953125 C-2.25647461 15.01595703 -2.25647461 15.01595703 -2.49023438 16.36328125 C-2.78954565 18.21143033 -3.08378055 20.06040837 -3.37304688 21.91015625 C-3.60411133 23.22693359 -3.60411133 23.22693359 -3.83984375 24.5703125 C-3.96738037 25.37227051 -4.09491699 26.17422852 -4.22631836 27.00048828 C-5 29 -5 29 -6.94750977 30.15185547 C-7.96349243 30.57168701 -7.96349243 30.57168701 -9 31 C-9.66 31.66 -10.32 32.32 -11 33 C-12.84883683 25.13911822 -13.48713927 19.42423199 -10 12 C-9.34 12 -8.68 12 -8 12 C-8 11.34 -8 10.68 -8 10 C-7.01 10 -6.02 10 -5 10 C-4.67 8.35 -4.34 6.7 -4 5 C-3.34 5 -2.68 5 -2 5 C-2 4.34 -2 3.68 -2 3 C-1.34 3 -0.68 3 0 3 C0 2.01 0 1.02 0 0 Z " fill="#2B9B6D" transform="translate(62,71)"/>
<path d="M0 0 C2.75 0.125 2.75 0.125 6 1 C11.27237649 7.1511059 12.44548197 14.05734616 12.3359375 21.93359375 C11.72442006 27.5154681 9.87654766 32.73058715 8 38 C7.01 38 6.02 38 5 38 C4.01 40.475 4.01 40.475 3 43 C1.67994824 39.03984471 2.6600696 37.08818675 3.875 33.125 C5.6929147 27.13732292 7.14343356 21.77506048 7.1875 15.5 C7.20167969 14.5821875 7.21585938 13.664375 7.23046875 12.71875 C6.97794788 9.73985977 6.39689082 7.64164501 5 5 C1.97017694 3.62810173 1.97017694 3.62810173 -1 3 C-0.67 2.01 -0.34 1.02 0 0 Z " fill="#BAC1A2" transform="translate(152,51)"/>
<path d="M0 0 C0.99 0 1.98 0 3 0 C3.01981934 0.62567871 3.03963867 1.25135742 3.06005859 1.89599609 C3.15514226 4.72276519 3.26488746 7.54877815 3.375 10.375 C3.4059375 11.35984375 3.436875 12.3446875 3.46875 13.359375 C3.50742188 14.30039063 3.54609375 15.24140625 3.5859375 16.2109375 C3.6173584 17.08024902 3.6487793 17.94956055 3.68115234 18.84521484 C3.81229433 21.20961794 3.81229433 21.20961794 6 23 C6.33 23 6.66 23 7 23 C7 25.64 7 28.28 7 31 C6.34 31 5.68 31 5 31 C1.47488808 35.4063899 0.89358587 40.58592088 0 46 C-0.33 46 -0.66 46 -1 46 C-1.77043223 41.20619948 -1.94147015 37.43223053 -1.27368164 32.59570312 C-0.64075154 26.59274792 -0.61102375 20.53154375 -0.4375 14.5 C-0.39422263 13.09113527 -0.35060569 11.68228093 -0.30664062 10.2734375 C-0.20109429 6.8490454 -0.09898202 3.42458708 0 0 Z " fill="#267A5B" transform="translate(100,90)"/>
<path d="M0 0 C0.33 0 0.66 0 1 0 C1.92313771 12.10336105 -1.36795543 23.88309303 -6 35 C-6.66 35 -7.32 35 -8 35 C-9.60543801 38.52025496 -11.2091197 42.04130738 -12.8125 45.5625 C-13.49022461 47.0484668 -13.49022461 47.0484668 -14.18164062 48.56445312 C-17.00192431 54.75935314 -17.00192431 54.75935314 -19.71875 61 C-21.02871126 64.06722636 -22.47985711 67.03210198 -24 70 C-24.99 69.67 -25.98 69.34 -27 69 C-26.5153125 68.05382812 -26.030625 67.10765625 -25.53125 66.1328125 C-21.42424435 58.05125187 -17.56295429 49.90657121 -13.94482422 41.59448242 C-11.83522302 36.77931507 -9.55080546 32.09995433 -7.125 27.4375 C-4.50707002 22.26693988 -2.82171887 17.71336293 -2 12 C-1.62522133 9.81246207 -1.25021254 7.62496355 -0.875 5.4375 C-0.58090027 3.6253932 -0.28836655 1.81302797 0 0 Z " fill="#F2F1DB" transform="translate(151,58)"/>
<path d="M0 0 C0.66 0 1.32 0 2 0 C4.98747367 8.96242102 2.27010063 18.00987183 -0.125 26.7890625 C-1.04381979 29.60613231 -1.04381979 29.60613231 -1 31 C-0.01 31 0.98 31 2 31 C2.99 27.535 2.99 27.535 4 24 C5.79341438 28.16673521 4.01173384 31.74663341 2.5625 35.75 C2.31951172 36.44738281 2.07652344 37.14476562 1.82617188 37.86328125 C1.22689752 39.57885098 0.61470115 41.28989715 0 43 C-0.12375 42.38125 -0.2475 41.7625 -0.375 41.125 C-0.87197356 38.80879168 -0.87197356 38.80879168 -3 37 C-3.99 39.97 -4.98 42.94 -6 46 C-6.495 44.515 -6.495 44.515 -7 43 C-6.67 42.34 -6.34 41.68 -6 41 C-5.77532169 39.46331135 -5.59203195 37.92031946 -5.4375 36.375 C-5.35371094 35.55773437 -5.26992187 34.74046875 -5.18359375 33.8984375 C-5.12300781 33.27195313 -5.06242188 32.64546875 -5 32 C-4.34 32 -3.68 32 -3 32 C-1.93430665 25.38502058 -1.44997978 18.73992176 -0.9375 12.0625 C-0.80118164 10.32129883 -0.80118164 10.32129883 -0.66210938 8.54492188 C-0.43941387 5.69676359 -0.21876953 2.84846207 0 0 Z " fill="#58A874" transform="translate(157,58)"/>
<path d="M0 0 C0.598125 0.763125 1.19625 1.52625 1.8125 2.3125 C4.75401859 6.43649553 4.75401859 6.43649553 9.12109375 8.29296875 C9.88550781 8.25816406 10.64992188 8.22335938 11.4375 8.1875 C12.58025391 8.14689453 12.58025391 8.14689453 13.74609375 8.10546875 C14.48988281 8.07066406 15.23367187 8.03585938 16 8 C17.32 8 18.64 8 20 8 C18.80491401 11.71804531 16.53143047 13.44112336 13.12890625 15.23828125 C7.80544731 17.14300509 2.65225637 16.60872603 -2.5625 14.6875 C-5 13 -5 13 -6 10 C-4.35 10 -2.7 10 -1 10 C-0.67 9.34 -0.34 8.68 0 8 C0 8.99 0 9.98 0 11 C1.32 11 2.64 11 4 11 C3.72382467 9.05925139 3.72382467 9.05925139 3 7 C2.01 6.34 1.02 5.68 0 5 C-0.1875 2.375 -0.1875 2.375 0 0 Z " fill="#2A7859" transform="translate(61,102)"/>
<path d="M0 0 C3 2.5625 3 2.5625 5 5 C4.67 5.66 4.34 6.32 4 7 C3.195625 6.154375 2.39125 5.30875 1.5625 4.4375 C-1.15378233 2.19528581 -2.91589153 1.60747485 -6.4375 1.8125 C-11.56880873 2.76976936 -14.76428273 4.94531707 -18 9 C-23.4794873 17.22616702 -23.79713301 25.4230163 -23 35 C-22.54129975 37.30904706 -22.54129975 37.30904706 -22 39 C-25.24921772 36.86235676 -26.81516254 35.44889096 -28.3125 31.8125 C-29.09613676 27.46687794 -29.17951681 23.39816194 -29 19 C-28.01 19.99 -27.02 20.98 -26 22 C-25.85304688 21.45472656 -25.70609375 20.90945312 -25.5546875 20.34765625 C-23.18384365 12.37671573 -19.87390852 5.39931877 -12.625 0.875 C-7.90104252 -1.41540362 -5.02622814 -1.50786844 0 0 Z " fill="#7C7C65" transform="translate(90,69)"/>
<path d="M0 0 C0.99 0.33 1.98 0.66 3 1 C2.4943565 6.53359156 1.04383132 10.56030575 -1.5625 15.4375 C-1.89185547 16.07365234 -2.22121094 16.70980469 -2.56054688 17.36523438 C-3.36453248 18.91494576 -4.18097666 20.45818322 -5 22 C-6.32 21.01 -7.64 20.02 -9 19 C-9.28875 19.969375 -9.5775 20.93875 -9.875 21.9375 C-11 25 -11 25 -13 26 C-12.58054965 23.48329792 -12.17555668 21.34014107 -11 19.0625 C-9.7228974 16.42847588 -9.39343003 13.88515352 -9 11 C-8.34 11 -7.68 11 -7 11 C-6.5978125 9.3603125 -6.5978125 9.3603125 -6.1875 7.6875 C-5.12336261 4.38307337 -4.65345336 3.05039578 -2 1 C-2 2.32 -2 3.64 -2 5 C-1.34 3.35 -0.68 1.7 0 0 Z " fill="#447B53" transform="translate(154,95)"/>
<path d="M0 0 C7.40713599 7.27281942 9.70518544 15.63946315 10.1171875 25.92578125 C10.12387045 28.28820248 10.09216414 30.6395739 10 33 C9.67 33 9.34 33 9 33 C8.34 30.36 7.68 27.72 7 25 C5.76240177 28.71279469 5.64391103 32.31306346 5.4375 36.1875 C5.39431641 36.93708984 5.35113281 37.68667969 5.30664062 38.45898438 C5.20077315 40.30578375 5.0999024 42.15286834 5 44 C4.67 44 4.34 44 4 44 C3.97812622 42.74678955 3.97812622 42.74678955 3.95581055 41.46826172 C3.89386562 38.29571833 3.81956609 35.12374338 3.73754883 31.95166016 C3.68889344 29.93281767 3.65381657 27.91366223 3.61914062 25.89453125 C3.37502321 16.88437943 2.20365884 8.73122148 0 0 Z " fill="#9EAD85" transform="translate(111,68)"/>
<path d="M0 0 C-3.53495331 8.50468179 -12.02657958 16.70180817 -20.375 20.3125 C-24.34378643 21.7830283 -27.76743559 22.53052805 -32 22 C-33.875 20 -33.875 20 -35 18 C-34.34515625 18.00902344 -33.6903125 18.01804688 -33.015625 18.02734375 C-21.7875114 17.66258865 -14.11410624 12.40182488 -6.375 4.5625 C-5.57835938 3.69753906 -4.78171875 2.83257812 -3.9609375 1.94140625 C-2 0 -2 0 0 0 Z " fill="#5E3C1A" transform="translate(124,149)"/>
<path d="M0 0 C0.33 0.99 0.66 1.98 1 3 C1.99 3 2.98 3 4 3 C4 3.33 4 3.66 4 4 C4.66 4 5.32 4 6 4 C4.37387593 7.67189306 2.12042006 10.61621667 -0.375 13.75 C-1.14585938 14.73484375 -1.91671875 15.7196875 -2.7109375 16.734375 C-5 19 -5 19 -9 19 C-9.38942012 14.06013372 -8.60710932 11.73792962 -5.625 7.8125 C-4.99851562 6.97332031 -4.37203125 6.13414062 -3.7265625 5.26953125 C-3.15679687 4.52058594 -2.58703125 3.77164063 -2 3 C-1.34 2.01 -0.68 1.02 0 0 Z " fill="#19443B" transform="translate(125,131)"/>
<path d="M0 0 C0.4125 0.45375 0.825 0.9075 1.25 1.375 C3.06408095 3.05950374 4.75285627 3.99265971 7 5 C7 5.66 7 6.32 7 7 C12.30005846 9.23160356 17.33053029 9.4591096 23 9 C23.33 8.67 23.66 8.34 24 8 C25.68183948 7.76712992 27.3712416 7.58735834 29.0625 7.4375 C30.44115234 7.31181641 30.44115234 7.31181641 31.84765625 7.18359375 C32.55792969 7.12300781 33.26820312 7.06242187 34 7 C32.61760289 9.76479423 31.5737755 11.63487014 28.9375 13.3125 C21.19724318 15.12404947 15.24093804 14.36839147 8.2734375 10.5 C4.94654372 8.30493606 2.54404582 6.07963441 0 3 C0 2.01 0 1.02 0 0 Z " fill="#CBC1A0" transform="translate(49,108)"/>
<path d="M0 0 C0.33 0 0.66 0 1 0 C1.33 2.31 1.66 4.62 2 7 C2.66 7 3.32 7 4 7 C3.25304449 11.92990637 2.14069688 17.39447734 -2 20.5 C-4 21 -4 21 -7 20 C-6.31849986 15.87227759 -5.02587765 12.20260086 -3.5 8.3125 C-3.0565625 7.17425781 -2.613125 6.03601563 -2.15625 4.86328125 C-1 2 -1 2 0 0 Z " fill="#287F61" transform="translate(141,101)"/>
<path d="M0 0 C1.32 0.33 2.64 0.66 4 1 C4 5 4 5 3 8 C4.98 7.67 6.96 7.34 9 7 C11.125 11.625 11.125 11.625 10 15 C9.67 14.34 9.34 13.68 9 13 C5.97065509 12.34227572 5.97065509 12.34227572 3 12 C2.34 13.98 1.68 15.96 1 18 C0.67 18 0.34 18 0 18 C-0.33951619 16.43883181 -0.67132544 14.87598662 -1 13.3125 C-1.185625 12.44238281 -1.37125 11.57226562 -1.5625 10.67578125 C-2.30102342 6.15891923 -2.59753297 3.89629946 0 0 Z " fill="#2BB482" transform="translate(102,68)"/>
<path d="M0 0 C1.4606285 2.64738916 2 3.89448334 2 7 C-1.19204969 11.0475558 -5.26888588 14.89728261 -10 17 C-10.99 16.67 -11.98 16.34 -13 16 C-13 15.34 -13 14.68 -13 14 C-12.34 13.67 -11.68 13.34 -11 13 C-10.896875 12.38125 -10.79375 11.7625 -10.6875 11.125 C-9.69581316 8.05978613 -7.7385013 7.61820531 -5 6 C-3.18693234 4.08866309 -1.62087427 2.08398121 0 0 Z " fill="#122C2D" transform="translate(115,146)"/>
<path d="M0 0 C0.33 0.66 0.66 1.32 1 2 C1.66 2 2.32 2 3 2 C3.91144418 9.89918285 0.80499489 15.20536627 -3 22 C-4.32 21.34 -5.64 20.68 -7 20 C-5.87634454 16.34811976 -4.53127372 12.9032334 -2.9375 9.4375 C-1.51248369 6.30140462 -0.44455381 3.44529201 0 0 Z " fill="#61491E" transform="translate(92,90)"/>
<path d="M0 0 C0.33 0 0.66 0 1 0 C1.07546125 4.15849515 1.12920345 8.31660338 1.16479492 12.47558594 C1.17966762 13.88353435 1.19997219 15.2914383 1.22631836 16.69921875 C1.40654631 26.59408641 0.5169145 35.36554263 -2 45 C-2.33 45 -2.66 45 -3 45 C-4.6170062 28.77218778 -4.6170062 28.77218778 -2 24 C-0.71665351 19.14970519 -0.66430644 14.17352365 -0.4375 9.1875 C-0.39431641 8.30384766 -0.35113281 7.42019531 -0.30664062 6.50976562 C-0.20108464 4.34000377 -0.10008929 2.1700209 0 0 Z " fill="#437D4A" transform="translate(114,85)"/>
<path d="M0 0 C0.97582031 0.10183594 1.95164062 0.20367187 2.95703125 0.30859375 C3.69308594 0.39238281 4.42914063 0.47617187 5.1875 0.5625 C5.5175 1.5525 5.8475 2.5425 6.1875 3.5625 C6.8475 3.5625 7.5075 3.5625 8.1875 3.5625 C7.8575 5.8725 7.5275 8.1825 7.1875 10.5625 C6.8575 9.9025 6.5275 9.2425 6.1875 8.5625 C4.24146726 7.97179986 4.24146726 7.97179986 2.1875 7.5625 C1.5275 7.2325 0.8675 6.9025 0.1875 6.5625 C0.1875 5.9025 0.1875 5.2425 0.1875 4.5625 C-4.1025 3.9025 -8.3925 3.2425 -12.8125 2.5625 C-9.14519914 -1.10480086 -4.89615003 -0.53090783 0 0 Z " fill="#3DC789" transform="translate(90.8125,60.4375)"/>
<path d="M0 0 C3.15079194 4.72618791 3.15809884 8.62645585 3.125 14.125 C3.12306641 14.88675537 3.12113281 15.64851074 3.11914062 16.43334961 C3.07880079 21.68705297 2.75703862 26.79535949 2 32 C1.67 32 1.34 32 1 32 C0.90912109 31.04287109 0.90912109 31.04287109 0.81640625 30.06640625 C0.73261719 29.24011719 0.64882812 28.41382812 0.5625 27.5625 C0.48128906 26.73878906 0.40007812 25.91507813 0.31640625 25.06640625 C0.21069185 23.01337975 0.21069185 23.01337975 -1 22 C-1.10091846 19.42657936 -1.1386752 16.88571619 -1.125 14.3125 C-1.12886719 13.60416016 -1.13273437 12.89582031 -1.13671875 12.16601562 C-1.12903062 8.00289267 -0.81372802 4.10093088 0 0 Z " fill="#725E38" transform="translate(117,90)"/>
<path d="M0 0 C2.97 0.495 2.97 0.495 6 1 C7.19522566 4.58567699 6.91928582 7.11291369 6.625 10.875 C6.53476563 12.08929688 6.44453125 13.30359375 6.3515625 14.5546875 C6.05757289 17.43578564 5.63312902 20.17774689 5 23 C2.69189759 19.53784639 2.38355236 16.64334999 1.9375 12.625 C1.43013335 8.37318359 0.91300004 4.1852568 0 0 Z " fill="#38C08C" transform="translate(151,54)"/>
<path d="M0 0 C0.33 0 0.66 0 1 0 C1.07347656 1.12148437 1.07347656 1.12148437 1.1484375 2.265625 C1.22320312 3.25046875 1.29796875 4.2353125 1.375 5.25 C1.44460937 6.22453125 1.51421875 7.1990625 1.5859375 8.203125 C1.84628581 10.98123884 1.84628581 10.98123884 3.1015625 13.171875 C4 15 4 15 3 18 C2.65772583 19.33106622 2.32248257 20.66400079 2 22 C1.34 22 0.68 22 0 22 C0 21.34 0 20.68 0 20 C-1.32 20 -2.64 20 -4 20 C-4 19.34 -4 18.68 -4 18 C-4.99 18 -5.98 18 -7 18 C-6.34 16.68 -5.68 15.36 -5 14 C-4.34 14 -3.68 14 -3 14 C-2.86722656 13.15695313 -2.73445313 12.31390625 -2.59765625 11.4453125 C-2.42105469 10.34960938 -2.24445312 9.25390625 -2.0625 8.125 C-1.88847656 7.03445312 -1.71445312 5.94390625 -1.53515625 4.8203125 C-1 2 -1 2 0 0 Z " fill="#24906F" transform="translate(59,86)"/>
<path d="M0 0 C0.77279297 -0.02449219 1.54558594 -0.04898438 2.34179688 -0.07421875 C8.05621505 -0.10320143 11.32598037 1.18368318 16.0625 4.375 C14.3125 5 14.3125 5 12.0625 5.375 C11.46824219 5.06691406 10.87398437 4.75882813 10.26171875 4.44140625 C7.64918436 3.17458229 5.51190759 2.931746 2.625 2.6875 C1.23474609 2.55794922 1.23474609 2.55794922 -0.18359375 2.42578125 C-2.93407539 2.37506315 -5.27099213 2.73136017 -7.9375 3.375 C-6.98037109 3.53935547 -6.98037109 3.53935547 -6.00390625 3.70703125 C-5.17761719 3.86558594 -4.35132812 4.02414063 -3.5 4.1875 C-2.26443359 4.41373047 -2.26443359 4.41373047 -1.00390625 4.64453125 C0.01896484 5.00611328 0.01896484 5.00611328 1.0625 5.375 C1.3925 6.365 1.7225 7.355 2.0625 8.375 C1.27875 8.045 0.495 7.715 -0.3125 7.375 C-4.93111869 6.10089829 -9.17999356 6.20576064 -13.9375 6.375 C-14.2675 5.055 -14.5975 3.735 -14.9375 2.375 C-9.84886513 0.33954605 -5.39543272 0.00895508 0 0 Z " fill="#64B781" transform="translate(87.9375,58.625)"/>
<path d="M0 0 C0.33 0 0.66 0 1 0 C0.66923533 7.62412564 -1.18150286 13.94201341 -4 21 C-4.33 21.99 -4.66 22.98 -5 24 C1.50878041 24.60266485 5.23918721 23.22869957 10.8984375 19.99609375 C11.59195313 19.66738281 12.28546875 19.33867187 13 19 C13.66 19.33 14.32 19.66 15 20 C7.63712715 25.47328601 2.11632533 26.84584462 -7 26 C-8.37335399 21.62011431 -7.05472421 20.10944841 -5 16 C-3.86790276 12.03004464 -2.91816564 8.02430047 -2 4 C-1.34 4 -0.68 4 0 4 C0 2.68 0 1.36 0 0 Z " fill="#9F9D8C" transform="translate(95,141)"/>
<path d="M0 0 C0.33 0 0.66 0 1 0 C1.7500457 5.33961106 2.16225297 10.54031516 2.125 15.9375 C2.12161621 16.65897217 2.11823242 17.38044434 2.11474609 18.1237793 C2.06454523 23.52504197 1.89546201 28.91789527 1.625 34.3125 C1.59422363 35.0233374 1.56344727 35.7341748 1.53173828 36.46655273 C1.32111342 40.08519272 0.95667729 42.90590462 -1 46 C-1.77043223 41.20619948 -1.94147015 37.43223053 -1.27368164 32.59570312 C-0.64075154 26.59274792 -0.61102375 20.53154375 -0.4375 14.5 C-0.39422263 13.09113527 -0.35060569 11.68228093 -0.30664062 10.2734375 C-0.20109429 6.8490454 -0.09898202 3.42458708 0 0 Z " fill="#516F4A" transform="translate(100,90)"/>
<path d="M0 0 C0.33 0 0.66 0 1 0 C1.50214245 3.62071135 1.12218186 4.82931846 -1.046875 7.859375 C-1.93890625 8.81328125 -2.8309375 9.7671875 -3.75 10.75 C-4.63171875 11.71421875 -5.5134375 12.6784375 -6.421875 13.671875 C-9.00788932 16.0071243 -9.81527104 16.26068792 -13 17 C-15.43115042 19.06842219 -15.43115042 19.06842219 -17.75 21.5625 C-18.54921875 22.38878906 -19.3484375 23.21507812 -20.171875 24.06640625 C-20.77515625 24.70449219 -21.3784375 25.34257812 -22 26 C-22.66 25.67 -23.32 25.34 -24 25 C-22.12818806 23.10092866 -20.25269944 21.20573596 -18.375 19.3125 C-17.59189453 18.51682617 -17.59189453 18.51682617 -16.79296875 17.70507812 C-14.22504137 15.12129934 -11.64566705 12.662564 -8.80859375 10.375 C-6.30839638 8.26078582 -4.54910656 6.35195575 -2.6875 3.6875 C-1.81173289 2.44395667 -0.92168674 1.20990149 0 0 Z " fill="#725A3C" transform="translate(134,134)"/>
<path d="M0 0 C0.99 0 1.98 0 3 0 C2.61576805 2.76647002 2.3192614 4.59745301 0.5625 6.8125 C-1.71637445 10.00292423 -2.17242878 13.18044052 -3 17 C-4.65 16.67 -6.3 16.34 -8 16 C-9.125 12.25 -9.125 12.25 -8 10 C-7.01 10 -6.02 10 -5 10 C-4.67 8.35 -4.34 6.7 -4 5 C-3.34 5 -2.68 5 -2 5 C-2 4.34 -2 3.68 -2 3 C-1.34 3 -0.68 3 0 3 C0 2.01 0 1.02 0 0 Z " fill="#2EA97B" transform="translate(62,71)"/>
<path d="M0 0 C2.75 0.125 2.75 0.125 6 1 C10.56489474 6.086597 10.50301616 10.41335648 10.25 16.875 C10.23195312 17.75414063 10.21390625 18.63328125 10.1953125 19.5390625 C10.14848379 21.6931832 10.07674994 23.84673774 10 26 C9.34 26.33 8.68 26.66 8 27 C7.95101562 25.83082031 7.90203125 24.66164063 7.8515625 23.45703125 C7.77649829 21.90883196 7.70095205 20.36065599 7.625 18.8125 C7.5940625 18.04357422 7.563125 17.27464844 7.53125 16.48242188 C7.31744081 12.33096015 7.10237992 8.69337013 5 5 C1.97017694 3.62810173 1.97017694 3.62810173 -1 3 C-0.67 2.01 -0.34 1.02 0 0 Z " fill="#DDEBD1" transform="translate(152,51)"/>
<path d="M0 0 C0.99 0 1.98 0 3 0 C3 1.32 3 2.64 3 4 C2.34 4 1.68 4 1 4 C1.12375 5.2375 1.12375 5.2375 1.25 6.5 C0.92764011 11.01303847 -0.79294651 14.11795056 -3 18 C-4.32 17.01 -5.64 16.02 -7 15 C-6.67 13.35 -6.34 11.7 -6 10 C-5.34 10 -4.68 10 -4 10 C-3.67 7.36 -3.34 4.72 -3 2 C-2.34 2 -1.68 2 -1 2 C-0.67 1.34 -0.34 0.68 0 0 Z " fill="#2A9371" transform="translate(151,86)"/>
<path d="M0 0 C0.99 0.33 1.98 0.66 3 1 C2.68383092 7.16529701 -0.49215061 11.17268433 -4 16 C-4.99 15.34 -5.98 14.68 -7 14 C-5.53967505 8.68972746 -3.01679014 4.53669968 0 0 Z " fill="#D8CFAD" transform="translate(145,114)"/>
<path d="M0 0 C0.33 0 0.66 0 1 0 C1.92313771 12.10336105 -1.36795543 23.88309303 -6 35 C-6.33 35 -6.66 35 -7 35 C-7.39038054 30.51062378 -6.98419699 27.61777703 -5.125 23.5 C-2.67216421 17.87494548 -2.05156334 12.25875483 -1.39453125 6.22265625 C-1 3 -1 3 0 0 Z " fill="#CFE9C9" transform="translate(151,58)"/>
<path d="M0 0 C0.33 0 0.66 0 1 0 C2.27947184 6.65941972 1.81115003 10.81546992 -1 17 C-1.66 16.34 -2.32 15.68 -3 15 C-3.33 17.64 -3.66 20.28 -4 23 C-4.33 23 -4.66 23 -5 23 C-5.49012125 14.95384279 -4.95274778 9.08002212 -1 2 C-0.67 1.34 -0.34 0.68 0 0 Z " fill="#E2EEC1" transform="translate(65,75)"/>
<path d="M0 0 C0.33 0 0.66 0 1 0 C1.20879022 5.11536035 0.4375614 9.11229122 -1 14 C-0.67 14.66 -0.34 15.32 0 16 C0.66 15.67 1.32 15.34 2 15 C2 14.34 2 13.68 2 13 C3.32 13.66 4.64 14.32 6 15 C6 15.99 6 16.98 6 18 C3.24921116 18.91692961 1.64051087 19.10886083 -1.1875 19.0625 C-3.0746875 19.0315625 -3.0746875 19.0315625 -5 19 C-6 17 -6 17 -5.29296875 14.86328125 C-4.74576172 13.60064453 -4.74576172 13.60064453 -4.1875 12.3125 C-2.47970707 8.24097983 -1.11356317 4.26865883 0 0 Z " fill="#172A28" transform="translate(95,147)"/>
<path d="M0 0 C0.66 0 1.32 0 2 0 C3.35439668 2.70879335 3.06501451 5.00933268 3 8 C3.66 8.33 4.32 8.66 5 9 C2.69 11.97 0.38 14.94 -2 18 C-3.64177401 14.71645198 -2.26642648 11.34371004 -1.5625 7.875 C-1.34110352 6.74384766 -1.34110352 6.74384766 -1.11523438 5.58984375 C-0.74942352 3.72538843 -0.37547644 1.86253286 0 0 Z " fill="#4E2F11" transform="translate(112,133)"/>
<path d="M0 0 C0.33 0.99 0.66 1.98 1 3 C1.99 3 2.98 3 4 3 C4 3.33 4 3.66 4 4 C4.66 4 5.32 4 6 4 C4.84826645 6.46800047 3.95216435 8.04783565 2 10 C1.01 9.67 0.02 9.34 -1 9 C-1 9.99 -1 10.98 -1 12 C-2.32 12 -3.64 12 -5 12 C-5.58305225 8.15185513 -4.7002883 6.23691365 -2.5 3.1875 C-1.67780256 2.11635945 -0.84795951 1.0508641 0 0 Z " fill="#1D5248" transform="translate(125,131)"/>
<path d="M0 0 C0.99 0 1.98 0 3 0 C3.19335938 0.92683594 3.38671875 1.85367188 3.5859375 2.80859375 C3.84632812 4.00613281 4.10671875 5.20367187 4.375 6.4375 C4.63023438 7.63246094 4.88546875 8.82742187 5.1484375 10.05859375 C5.42945313 11.02925781 5.71046875 11.99992187 6 13 C6.66 13.33 7.32 13.66 8 14 C8 15.32 8 16.64 8 18 C6.25 17.9375 6.25 17.9375 4 17 C-0.27688597 11.41628776 -0.49892058 6.8878758 0 0 Z " fill="#507958" transform="translate(47,94)"/>
<path d="M0 0 C0.33 0 0.66 0 1 0 C1 1.65 1 3.3 1 5 C2.98 5 4.96 5 7 5 C6 8 6 8 3.9375 9.1875 C3.298125 9.455625 2.65875 9.72375 2 10 C2 10.99 2 11.98 2 13 C1.01 13.33 0.02 13.66 -1 14 C-1.33 13.34 -1.66 12.68 -2 12 C-2.66 12.66 -3.32 13.32 -4 14 C-3.67 11.03 -3.34 8.06 -3 5 C-2.34 5 -1.68 5 -1 5 C-0.67 3.35 -0.34 1.7 0 0 Z " fill="#26534A" transform="translate(98,131)"/>
<path d="M0 0 C1.32 1.32 2.64 2.64 4 4 C2.35 5.98 0.7 7.96 -1 10 C-1.66 9.34 -2.32 8.68 -3 8 C-3.54269531 8.69867188 -4.08539063 9.39734375 -4.64453125 10.1171875 C-5.35996094 11.02726563 -6.07539063 11.93734375 -6.8125 12.875 C-7.87404297 14.23238281 -7.87404297 14.23238281 -8.95703125 15.6171875 C-11 18 -11 18 -14 20 C-12.2850816 16.0342512 -9.65226582 12.80587759 -7 9.4375 C-4.57888121 6.34192668 -2.1818227 3.27273406 0 0 Z " fill="#9E956F" transform="translate(137,127)"/>
<path d="M0 0 C0.33 0 0.66 0 1 0 C0.57123232 9.11131318 -0.87037683 20.30556525 -6 28 C-5.69050349 31.30129606 -4.46254526 32.8586563 -2 35 C-6.875 34.125 -6.875 34.125 -8 33 C-8.67824362 27.84534849 -6.97746603 24.0034212 -5.15625 19.30078125 C-2.95150793 13.00683851 -1.52975285 6.48517565 0 0 Z " fill="#EDEBDE" transform="translate(94,135)"/>
<path d="M0 0 C0.66 0.99 1.32 1.98 2 3 C1.55615234 4.8059082 1.55615234 4.8059082 0.5859375 6.80078125 C0.23660156 7.53103516 -0.11273438 8.26128906 -0.47265625 9.01367188 C-0.85292969 9.77228516 -1.23320312 10.53089844 -1.625 11.3125 C-1.98207031 12.05951172 -2.33914062 12.80652344 -2.70703125 13.57617188 C-4.84205039 17.96567873 -7.19407111 22.00694735 -10 26 C-10.33 25.34 -10.66 24.68 -11 24 C-10.10375977 21.56982422 -10.10375977 21.56982422 -8.69140625 18.5546875 C-8.19189453 17.47832031 -7.69238281 16.40195313 -7.17773438 15.29296875 C-6.64470703 14.16503906 -6.11167969 13.03710938 -5.5625 11.875 C-5.03333984 10.73933594 -4.50417969 9.60367188 -3.95898438 8.43359375 C-2.6463123 5.6190356 -1.32638724 2.80811429 0 0 Z " fill="#758765" transform="translate(143,91)"/>
<path d="M0 0 C0.99 0.33 1.98 0.66 3 1 C2.57664615 7.49142565 0.08900201 12.33492989 -3 18 C-4.4434948 15.69354635 -5.09746152 14.54480989 -4.609375 11.81640625 C-4.32578125 11.07261719 -4.0421875 10.32882813 -3.75 9.5625 C-3.45996094 8.78132813 -3.16992188 8.00015625 -2.87109375 7.1953125 C-2.58363281 6.47085938 -2.29617187 5.74640625 -2 5 C-1.4121875 3.4840625 -1.4121875 3.4840625 -0.8125 1.9375 C-0.544375 1.298125 -0.27625 0.65875 0 0 Z " fill="#5D4015" transform="translate(154,95)"/>
<path d="M0 0 C0.33 0.66 0.66 1.32 1 2 C1.66 2.33 2.32 2.66 3 3 C3.32613618 7.67461851 2.70582788 10.16674383 0 14 C-0.99 13.67 -1.98 13.34 -3 13 C-2.88557539 11.39504433 -2.75805306 9.79101881 -2.625 8.1875 C-2.55539063 7.29417969 -2.48578125 6.40085938 -2.4140625 5.48046875 C-2 3 -2 3 0 0 Z " fill="#186961" transform="translate(103,123)"/>
<path d="M0 0 C0.66 0 1.32 0 2 0 C0.51637716 6.26418531 -3.24162156 10.91513505 -7 16 C-9 13 -9 13 -8.9375 11.125 C-7.59394503 8.07960874 -5.39480413 6.28076583 -3 4 C-2.443125 3.236875 -1.88625 2.47375 -1.3125 1.6875 C-0.6628125 0.8521875 -0.6628125 0.8521875 0 0 Z " fill="#A1A394" transform="translate(124,128)"/>
<path d="M0 0 C0.33 0.66 0.66 1.32 1 2 C0.690625 2.928125 0.38125 3.85625 0.0625 4.8125 C-2.22877847 12.18174696 -1.40483842 20.52625959 0 28 C-4.35551971 22.8869986 -4.32715862 17.29352134 -4.30078125 10.8046875 C-3.84156585 6.52265301 -2.21157065 3.66291389 0 0 Z " fill="#F3EEE1" transform="translate(49,82)"/>
<path d="M0 0 C3.125 0.25 3.125 0.25 5 1.375 C6.5932099 4.03034983 6.32714032 6.21789518 6.125 9.25 C5.795 9.25 5.465 9.25 5.125 9.25 C5.125 7.6 5.125 5.95 5.125 4.25 C4.465 4.25 3.805 4.25 3.125 4.25 C2.465 4.91 1.805 5.57 1.125 6.25 C1.125 4.93 1.125 3.61 1.125 2.25 C-1.43660784 3.53080392 -1.63961393 4.7065581 -2.875 7.25 C-4.43239118 9.45630418 -5.96291922 11.33791922 -7.875 13.25 C-7.09724977 8.11684846 -5.91279441 0.51415604 0 0 Z " fill="#CCCDB3" transform="translate(89.875,87.75)"/>
<path d="M0 0 C0.66 0.66 1.32 1.32 2 2 C1.60761402 5.66226912 -0.31566883 8.77780124 -2 12 C-2.66 12 -3.32 12 -4 12 C-4 12.66 -4 13.32 -4 14 C-4.66 13.67 -5.32 13.34 -6 13 C-5.67 12.01 -5.34 11.02 -5 10 C-5.0825 9.21625 -5.165 8.4325 -5.25 7.625 C-4.88661246 3.80943083 -2.79602184 2.44651911 0 0 Z " fill="#1E695F" transform="translate(133,123)"/>
<path d="M0 0 C6.02199409 5.69648089 8.60729526 9.75320036 9 18 C8.01171875 20.24609375 8.01171875 20.24609375 7 22 C6.85900879 21.45996338 6.71801758 20.91992676 6.57275391 20.36352539 C5.93181099 17.92757486 5.27858573 15.49508733 4.625 13.0625 C4.40328125 12.21236328 4.1815625 11.36222656 3.953125 10.48632812 C3.73398438 9.67744141 3.51484375 8.86855469 3.2890625 8.03515625 C3.09006348 7.2862915 2.89106445 6.53742676 2.68603516 5.76586914 C2.14745029 3.79382033 2.14745029 3.79382033 0 3 C0 2.01 0 1.02 0 0 Z " fill="#D6E5CB" transform="translate(91,68)"/>
<path d="M0 0 C0.33 0 0.66 0 1 0 C1.0270203 2.75006608 1.04684883 5.49986546 1.0625 8.25 C1.07087891 9.02730469 1.07925781 9.80460937 1.08789062 10.60546875 C1.09111328 11.35957031 1.09433594 12.11367187 1.09765625 12.890625 C1.10289307 13.58188477 1.10812988 14.27314453 1.11352539 14.98535156 C0.99437971 17.09973898 0.57618237 18.96641515 0 21 C-0.66 21 -1.32 21 -2 21 C-2.33 23.64 -2.66 26.28 -3 29 C-3.66 28.67 -4.32 28.34 -5 28 C-4.72285156 26.81664063 -4.44570312 25.63328125 -4.16015625 24.4140625 C-2.28515183 16.27929562 -0.53896362 8.35393605 0 0 Z " fill="#51A674" transform="translate(152,59)"/>
<path d="M0 0 C1.79341438 4.16673521 0.01173384 7.74663341 -1.4375 11.75 C-1.68048828 12.44738281 -1.92347656 13.14476563 -2.17382812 13.86328125 C-2.77310248 15.57885098 -3.38529885 17.28989715 -4 19 C-4.185625 18.1028125 -4.185625 18.1028125 -4.375 17.1875 C-4.95475985 14.73768652 -4.95475985 14.73768652 -7 12 C-6.01 10.02 -5.02 8.04 -4 6 C-3.34 6.33 -2.68 6.66 -2 7 C-1.34 4.69 -0.68 2.38 0 0 Z " fill="#8A7758" transform="translate(161,82)"/>
<path d="M0 0 C2 2 2 2 2.25 5.8125 C2.14989809 9.25350303 1.81990592 11.99715523 0 15 C-2.125 15.8125 -2.125 15.8125 -4 16 C-3.67 14.02 -3.34 12.04 -3 10 C-2.01 10 -1.02 10 0 10 C-0.185625 8.72125 -0.37125 7.4425 -0.5625 6.125 C-1.125 2.25 -1.125 2.25 0 0 Z " fill="#23927D" transform="translate(56,86)"/>
<path d="M0 0 C0.66 0 1.32 0 2 0 C2 0.66 2 1.32 2 2 C2.598125 2.268125 3.19625 2.53625 3.8125 2.8125 C5.97470166 3.98626662 7.31624122 5.23606223 9 7 C9.33 7 9.66 7 10 7 C10.33 9.64 10.66 12.28 11 15 C11.66 15 12.32 15 13 15 C13.33 17.31 13.66 19.62 14 22 C13.34 22.33 12.68 22.66 12 23 C11.76925781 22.21496094 11.53851563 21.42992188 11.30078125 20.62109375 C9.05879551 13.39888671 6.82502155 7.75268072 1.34765625 2.37890625 C0 1 0 1 0 0 Z " fill="#4DA570" transform="translate(89,65)"/>
<path d="M0 0 C-1.57780923 3.71045247 -3.90703248 6.29906384 -6.625 9.25 C-7.44226563 10.14203125 -8.25953125 11.0340625 -9.1015625 11.953125 C-10.04128906 12.96632812 -10.04128906 12.96632812 -11 14 C-11.33 13.34 -11.66 12.68 -12 12 C-12.66 11.67 -13.32 11.34 -14 11 C-13.46890625 10.54109375 -12.9378125 10.0821875 -12.390625 9.609375 C-7.8947499 5.70720627 -7.8947499 5.70720627 -3.625 1.5625 C-2 0 -2 0 0 0 Z " fill="#4F2D10" transform="translate(124,149)"/>
<path d="M0 0 C0.99 0.33 1.98 0.66 3 1 C1.987668 3.93576279 1.03642058 4.97512741 -1.5625 6.75 C-5.84985708 8.30903894 -9.49360134 8.27038392 -14 8 C-14 7.67 -14 7.34 -14 7 C-13.28972656 6.87882812 -12.57945313 6.75765625 -11.84765625 6.6328125 C-10.92855469 6.46523437 -10.00945312 6.29765625 -9.0625 6.125 C-8.14597656 5.96257812 -7.22945313 5.80015625 -6.28515625 5.6328125 C-5.53105469 5.42398438 -4.77695313 5.21515625 -4 5 C-3.67 4.34 -3.34 3.68 -3 3 C-4.65 3 -6.3 3 -8 3 C-8 2.67 -8 2.34 -8 2 C-6.2984375 1.7834375 -6.2984375 1.7834375 -4.5625 1.5625 C-1.19222799 1.38828522 -1.19222799 1.38828522 0 0 Z " fill="#3D6F43" transform="translate(78,109)"/>
<path d="M0 0 C1.33333333 0.66666667 2.66666667 1.33333333 4 2 C4.99 2.33 5.98 2.66 7 3 C3.04 4.98 3.04 4.98 -1 7 C-1 5.68 -1 4.36 -1 3 C-2.36125 3.9590625 -2.36125 3.9590625 -3.75 4.9375 C-6.39221381 6.61428953 -7.9898499 7.53689998 -11 8 C-7.6378363 4.34117479 -4.63949148 1.85579659 0 0 Z " fill="#5FAB77" transform="translate(72,62)"/>
<path d="M0 0 C2 2 2 2 2.046875 5.1171875 C1.94890625 6.35726562 1.8509375 7.59734375 1.75 8.875 C1.66234375 10.10992187 1.5746875 11.34484375 1.484375 12.6171875 C1.05717329 15.60070909 0.55417154 17.46491692 -1 20 C-2.17571451 16.32589215 -2.07366746 12.83070817 -2 9 C-1.34 9 -0.68 9 0 9 C0 6.03 0 3.06 0 0 Z " fill="#B3BA9E" transform="translate(97,120)"/>
<path d="M0 0 C1.32 1.32 2.64 2.64 4 4 C2.52307692 8.67692308 2.52307692 8.67692308 -0.125 10.3125 C-1.053125 10.6528125 -1.053125 10.6528125 -2 11 C-2.66 10.01 -3.32 9.02 -4 8 C-2.68 5.36 -1.36 2.72 0 0 Z " fill="#1F765F" transform="translate(139,111)"/>
<path d="M0 0 C3.34156689 2.70507796 4.58156362 6.01486922 6 10 C6.1875 13.4375 6.1875 13.4375 6 16 C5.01 16 4.02 16 3 16 C2.49595192 13.89679937 1.99689492 11.79240209 1.5 9.6875 C1.08234375 7.92986328 1.08234375 7.92986328 0.65625 6.13671875 C0 3 0 3 0 0 Z " fill="#DCEECA" transform="translate(112,72)"/>
<path d="M0 0 C6.11626526 5.45504739 8.17702852 10.93487954 9 19 C8.34 19.33 7.68 19.66 7 20 C6.34 16.37 5.68 12.74 5 9 C4.34 9 3.68 9 3 9 C2.01 6.03 1.02 3.06 0 0 Z " fill="#5AA878" transform="translate(106,66)"/>
<path d="M0 0 C4.69066665 0.68154986 7.95846266 3.49762367 11 7 C11.4375 9.875 11.4375 9.875 11 12 C10.278125 11.2575 9.55625 10.515 8.8125 9.75 C6.31200205 7.30506867 3.74845592 5.15419518 1 3 C0.34 2.34 -0.32 1.68 -1 1 C-0.67 0.67 -0.34 0.34 0 0 Z " fill="#CFD9BF" transform="translate(101,60)"/>
<path d="M0 0 C0.4125 0.45375 0.825 0.9075 1.25 1.375 C3.06408095 3.05950374 4.75285627 3.99265971 7 5 C7 5.66 7 6.32 7 7 C8.98 7.66 10.96 8.32 13 9 C13 9.99 13 10.98 13 12 C7.25252737 10.73835967 3.48830683 7.63387505 0 3 C0 2.01 0 1.02 0 0 Z " fill="#B5BB9D" transform="translate(49,108)"/>
<path d="M0 0 C3 2.5625 3 2.5625 5 5 C4.67 5.66 4.34 6.32 4 7 C3.195625 6.154375 2.39125 5.30875 1.5625 4.4375 C-0.51666148 2.67516312 -1.54560768 2.02163773 -4.296875 1.890625 C-6.5570131 2.17129574 -8.76439807 2.56991277 -11 3 C-11.99 3 -12.98 3 -14 3 C-9.96008661 -1.42466705 -5.63047248 -1.65408822 0 0 Z " fill="#8E9380" transform="translate(90,69)"/>
<path d="M0 0 C0.66 0 1.32 0 2 0 C0.58399311 6.13602988 -3.0663375 10.26698362 -7 15 C-7.66 14.34 -8.32 13.68 -9 13 C-8.34 12.67 -7.68 12.34 -7 12 C-5.98200863 10.25313389 -5.98200863 10.25313389 -5.0625 8.1875 C-3.62210235 5.20496658 -2.25848062 2.46379704 0 0 Z " fill="#305D3F" transform="translate(139,120)"/>
<path d="M0 0 C1 3 1 3 -0.43359375 6.35546875 C-1.09148807 7.6380304 -1.75989743 8.91524057 -2.4375 10.1875 C-2.77587891 10.84169922 -3.11425781 11.49589844 -3.46289062 12.16992188 C-4.29969098 13.78459299 -5.14869746 15.39292763 -6 17 C-6.66 16.67 -7.32 16.34 -8 16 C-5.36 10.72 -2.72 5.44 0 0 Z " fill="#F1F1E3" transform="translate(143,88)"/>
<path d="M0 0 C1.4606285 2.64738916 2 3.89448334 2 7 C1.34 7.66 0.68 8.32 0 9 C-1.32 9 -2.64 9 -4 9 C-2.25 2.25 -2.25 2.25 0 0 Z " fill="#1B3A31" transform="translate(115,146)"/>
<path d="M0 0 C1.65 0.33 3.3 0.66 5 1 C4.34 2.98 3.68 4.96 3 7 C1.68 7 0.36 7 -1 7 C-2 4 -2 4 -1.0625 1.8125 C-0.5365625 0.9153125 -0.5365625 0.9153125 0 0 Z " fill="#886C36" transform="translate(87,104)"/>
<path d="M0 0 C0.33 1.32 0.66 2.64 1 4 C1.66 4 2.32 4 3 4 C3.69685498 5.6210103 4.38222861 7.24696066 5.0625 8.875 C5.44535156 9.77992187 5.82820313 10.68484375 6.22265625 11.6171875 C7 14 7 14 6 16 C2.11736749 12.76447291 1.03257023 9.9047086 0 5 C-0.125 2.0625 -0.125 2.0625 0 0 Z " fill="#584623" transform="translate(61,92)"/>
<path d="M0 0 C0.33 0.66 0.66 1.32 1 2 C0.67 2.66 0.34 3.32 0 4 C0.99 4 1.98 4 3 4 C1.8141763 7.37503669 0.72426311 9.64722731 -2 12 C-2 10.68 -2 9.36 -2 8 C-2.33 7.01 -2.66 6.02 -3 5 C-1.5625 2.3125 -1.5625 2.3125 0 0 Z " fill="#45794B" transform="translate(85,96)"/>
<path d="M0 0 C0.33 0.66 0.66 1.32 1 2 C0.2884375 3.175625 0.2884375 3.175625 -0.4375 4.375 C-2.34098924 7.06372236 -2.34098924 7.06372236 -2 11 C-3.5 12.75 -3.5 12.75 -5 14 C-5.78774617 5.96498906 -5.78774617 5.96498906 -2.5 1.9375 C-1.2625 0.9784375 -1.2625 0.9784375 0 0 Z " fill="#E1EEC9" transform="translate(71,69)"/>
<path d="M0 0 C0.33 0 0.66 0 1 0 C1 2.64 1 5.28 1 8 C0.34 8 -0.32 8 -1 8 C-2.38232443 9.62626404 -3.71937515 11.2925002 -5 13 C-4.61581313 7.33324362 -4.17784019 4.17784019 0 0 Z " fill="#1E7464" transform="translate(106,113)"/>
<path d="M0 0 C0.33 0.66 0.66 1.32 1 2 C1.66 2 2.32 2 3 2 C3.33 3.98 3.66 5.96 4 8 C3.01 8.495 3.01 8.495 2 9 C1.67 8.34 1.34 7.68 1 7 C0.67 9.64 0.34 12.28 0 15 C-0.33 15 -0.66 15 -1 15 C-1.02703381 13.06257659 -1.04641125 11.12504521 -1.0625 9.1875 C-1.07410156 8.10855469 -1.08570313 7.02960938 -1.09765625 5.91796875 C-1 3 -1 3 0 0 Z " fill="#BFC591" transform="translate(61,83)"/>
<path d="M0 0 C0.33 0 0.66 0 1 0 C1.23268915 6.28260706 0.40454548 11.88019467 -1 18 C-1.33 18 -1.66 18 -2 18 C-2.22245393 16.39773045 -2.42746669 14.79303233 -2.625 13.1875 C-2.74101563 12.29417969 -2.85703125 11.40085937 -2.9765625 10.48046875 C-3 8 -3 8 -1 5 C-0.61500109 3.34450469 -0.27206865 1.6777567 0 0 Z " fill="#33644A" transform="translate(113,112)"/>
<path d="M0 0 C2 3 2 3 1.625 5.6875 C1.41875 6.450625 1.2125 7.21375 1 8 C0.01 8 -0.98 8 -2 8 C-1.67 7.34 -1.34 6.68 -1 6 C-2.98 6 -4.96 6 -7 6 C-6.21625 5.38125 -5.4325 4.7625 -4.625 4.125 C-2.03162353 2.10141339 -2.03162353 2.10141339 0 0 Z " fill="#ABA16E" transform="translate(82,110)"/>
<path d="M0 0 C1.32 0 2.64 0 4 0 C4.33 0.66 4.66 1.32 5 2 C7.02463255 2.65213292 7.02463255 2.65213292 9 3 C9 3.66 9 4.32 9 5 C11.64 5 14.28 5 17 5 C17 5.33 17 5.66 17 6 C10.98321342 6.32105383 6.16083152 6.57288336 1 3 C0.67 2.01 0.34 1.02 0 0 Z " fill="#557E55" transform="translate(55,112)"/>
<path d="M0 0 C0.33 0 0.66 0 1 0 C1 1.98 1 3.96 1 6 C0.01 6.33 -0.98 6.66 -2 7 C-2.70381157 8.98723268 -3.3711811 10.98777953 -4 13 C-4.99 13.495 -4.99 13.495 -6 14 C-5.53199289 9.94393835 -5.12046792 6.53411321 -3 3 C-2.01 3 -1.02 3 0 3 C0 2.01 0 1.02 0 0 Z " fill="#2C634F" transform="translate(131,121)"/>
<path d="M0 0 C1.30765478 3.92296433 1.1971417 6.86002433 1 11 C0.34 11.66 -0.32 12.32 -1 13 C-1.99 11.68 -2.98 10.36 -4 9 C-2.68 6.03 -1.36 3.06 0 0 Z " fill="#948E62" transform="translate(149,104)"/>
<path d="M0 0 C0.99 0 1.98 0 3 0 C2.5206753 4.31392226 1.2542015 6.16569547 -2 9 C-2.33 8.34 -2.66 7.68 -3 7 C-3.66 7.66 -4.32 8.32 -5 9 C-4.67 7.68 -4.34 6.36 -4 5 C-3.34 5 -2.68 5 -2 5 C-2 4.34 -2 3.68 -2 3 C-1.34 3 -0.68 3 0 3 C0 2.01 0 1.02 0 0 Z " fill="#33B77D" transform="translate(62,71)"/>
<path d="M0 0 C2.64 0 5.28 0 8 0 C8 0.66 8 1.32 8 2 C9.32 2.33 10.64 2.66 12 3 C8.99011728 3.58052245 6.07110598 4.05989746 3 4 C0.9375 2.0625 0.9375 2.0625 0 0 Z " fill="#6C5C45" transform="translate(89,167)"/>
<path d="M0 0 C0.33 0 0.66 0 1 0 C1.125 6.625 1.125 6.625 0 10 C-0.66 10 -1.32 10 -2 10 C-2.33 10.99 -2.66 11.98 -3 13 C-3.66 12.67 -4.32 12.34 -5 12 C-4.54625 10.948125 -4.0925 9.89625 -3.625 8.8125 C-2.37239999 5.89174547 -1.16489979 2.95705332 0 0 Z " fill="#194539" transform="translate(109,135)"/>
<path d="M0 0 C1 2 1 2 0.4375 3.9375 C0.2209375 4.9584375 0.2209375 4.9584375 0 6 C0.99 7.485 0.99 7.485 2 9 C0.68 9.99 -0.64 10.98 -2 12 C-3.35384615 4.61538462 -3.35384615 4.61538462 -1.5625 1.5 C-1.046875 1.005 -0.53125 0.51 0 0 Z " fill="#918957" transform="translate(86,104)"/>
<path d="M0 0 C0.33 0 0.66 0 1 0 C1.37048917 6.54530874 1.37048917 6.54530874 -0.375 8.6875 C-0.91125 9.120625 -1.4475 9.55375 -2 10 C-3.17574711 12.09989652 -3.17574711 12.09989652 -4 14 C-4.33 13.34 -4.66 12.68 -5 12 C-4.26821134 9.92803369 -3.44100997 7.8891448 -2.5625 5.875 C-2.08941406 4.77929688 -1.61632812 3.68359375 -1.12890625 2.5546875 C-0.75636719 1.71164063 -0.38382813 0.86859375 0 0 Z " fill="#368F64" transform="translate(147,87)"/>
<path d="M0 0 C1.32 0.33 2.64 0.66 4 1 C4 2.32 4 3.64 4 5 C3.01 5.33 2.02 5.66 1 6 C1 5.34 1 4.68 1 4 C0.34 4 -0.32 4 -1 4 C-1.33 4.66 -1.66 5.32 -2 6 C-1.49396008 3.83125748 -1.00016187 2.00032373 0 0 Z " fill="#2AC08A" transform="translate(102,68)"/>
<path d="M0 0 C1.1875 1.5625 1.1875 1.5625 2 4 C0.625 7.625 0.625 7.625 -1 11 C-1 11.66 -1 12.32 -1 13 C-1.99 12.67 -2.98 12.34 -4 12 C-3.33501617 7.61110675 -1.81242323 4.0188515 0 0 Z " fill="#7A7C6F" transform="translate(91,154)"/>
<path d="M0 0 C0.33 0 0.66 0 1 0 C1.20086443 3.71599191 1.1519437 4.77208445 -1 8 C-0.69050349 11.30129606 0.53745474 12.8586563 3 15 C-1.875 14.125 -1.875 14.125 -3 13 C-3.49432386 7.80959948 -2.19790854 4.57897612 0 0 Z " fill="#E2DFD3" transform="translate(89,155)"/>
<path d="M0 0 C0.33 0 0.66 0 1 0 C1.19392201 5.52677733 0.7479503 9.75614911 -1 15 C-1.66 15 -2.32 15 -3 15 C-3.18395704 10.95294518 -2.93489201 8.52833249 -1 5 C-0.62331656 3.34259285 -0.27942455 1.67654729 0 0 Z " fill="#2A795E" transform="translate(113,104)"/>
<path d="M0 0 C0.66 0 1.32 0 2 0 C2.33 1.32 2.66 2.64 3 4 C2.34 4 1.68 4 1 4 C0.34 5.32 -0.32 6.64 -1 8 C-1.99 7.67 -2.98 7.34 -4 7 C-2.79618552 4.50638429 -1.54571278 2.31856917 0 0 Z " fill="#F4EFD2" transform="translate(72,69)"/>
<path d="M0 0 C0.66 0 1.32 0 2 0 C3.35439668 2.70879335 3.06501451 5.00933268 3 8 C3.66 8.33 4.32 8.66 5 9 C4.67 9.66 4.34 10.32 4 11 C3.34 11 2.68 11 2 11 C1.67 9.02 1.34 7.04 1 5 C0.01 5.495 0.01 5.495 -1 6 C-0.67 4.02 -0.34 2.04 0 0 Z " fill="#6E5230" transform="translate(112,133)"/>
<path d="M0 0 C0.33 0 0.66 0 1 0 C1 2.97 1 5.94 1 9 C0.34 9 -0.32 9 -1 9 C-1.33 9.66 -1.66 10.32 -2 11 C-2.05399736 9.54207116 -2.09279177 8.08357288 -2.125 6.625 C-2.15980469 5.40683594 -2.15980469 5.40683594 -2.1953125 4.1640625 C-2 2 -2 2 0 0 Z " fill="#215B4E" transform="translate(110,126)"/>
<path d="M0 0 C0.99 0 1.98 0 3 0 C3.1953125 6.0546875 3.1953125 6.0546875 3 8 C2.34 8.66 1.68 9.32 1 10 C-0.60725635 6.78548731 -0.05748185 3.56387464 0 0 Z " fill="#EFE3B9" transform="translate(114,118)"/>
<path d="M0 0 C0.99 0.33 1.98 0.66 3 1 C3.33 4.3 3.66 7.6 4 11 C3.01 11.495 3.01 11.495 2 12 C2 10.02 2 8.04 2 6 C1.01 6 0.02 6 -1 6 C-0.67 4.02 -0.34 2.04 0 0 Z " fill="#C0B278" transform="translate(115,112)"/>
<path d="M0 0 C0.639375 0.433125 1.27875 0.86625 1.9375 1.3125 C5.80734715 3.44486476 9.78894498 4.70640794 14 6 C14 6.33 14 6.66 14 7 C6.01007787 7.7833257 6.01007787 7.7833257 1.9375 4.625 C0 2 0 2 0 0 Z " fill="#7B8D66" transform="translate(63,104)"/>
<path d="M0 0 C0.33 0 0.66 0 1 0 C1.04898438 0.74765625 1.09796875 1.4953125 1.1484375 2.265625 C1.22320312 3.25046875 1.29796875 4.2353125 1.375 5.25 C1.44460937 6.22453125 1.51421875 7.1990625 1.5859375 8.203125 C1.84628581 10.98123884 1.84628581 10.98123884 3.1015625 13.171875 C4 15 4 15 3 18 C3 17.34 3 16.68 3 16 C2.34 16 1.68 16 1 16 C-0.50156874 12.99686252 -0.09281204 10.20932478 -0.0625 6.875 C-0.05347656 5.59367187 -0.04445312 4.31234375 -0.03515625 2.9921875 C-0.02355469 2.00476563 -0.01195312 1.01734375 0 0 Z " fill="#4F8E5D" transform="translate(59,86)"/>
<path d="M0 0 C0.99 0 1.98 0 3 0 C3 1.32 3 2.64 3 4 C2.01 4.495 2.01 4.495 1 5 C-0.13350534 7.01669827 -0.13350534 7.01669827 -1 9 C-2.4606285 6.35261084 -3 5.10551666 -3 2 C-2.34 2 -1.68 2 -1 2 C-0.67 1.34 -0.34 0.68 0 0 Z " fill="#26A375" transform="translate(151,86)"/>
<path d="M0 0 C0.99 0.33 1.98 0.66 3 1 C2.625 3.9375 2.625 3.9375 2 7 C1.01 7.495 1.01 7.495 0 8 C-0.66 7.67 -1.32 7.34 -2 7 C-1.125 1.125 -1.125 1.125 0 0 Z " fill="#175F5A" transform="translate(102,129)"/>
<path d="M0 0 C0.33 0 0.66 0 1 0 C2.12862175 5.36095333 2.09688221 10.55306686 2 16 C1.67 16 1.34 16 1 16 C0.63409254 14.27327966 0.28277805 12.54346345 -0.0625 10.8125 C-0.35833984 9.36810547 -0.35833984 9.36810547 -0.66015625 7.89453125 C-1.00423947 4.96389138 -0.74164697 2.83692932 0 0 Z " fill="#91887A" transform="translate(119,85)"/>
<path d="M0 0 C1.65 0 3.3 0 5 0 C4.6875 2.375 4.6875 2.375 4 5 C3.01 5.66 2.02 6.32 1 7 C0.67 4.69 0.34 2.38 0 0 Z " fill="#888B75" transform="translate(115,137)"/>
<path d="M0 0 C0 3.19610552 -0.54671542 4.41717626 -2 7.1875 C-2.37125 7.90292969 -2.7425 8.61835937 -3.125 9.35546875 C-3.558125 10.16951172 -3.558125 10.16951172 -4 11 C-4.99 10.67 -5.98 10.34 -7 10 C-6.02223933 8.51990357 -5.0427506 7.04094856 -4.0625 5.5625 C-3.51722656 4.73878906 -2.97195312 3.91507812 -2.41015625 3.06640625 C-1 1 -1 1 0 0 Z " fill="#D3D9BF" transform="translate(131,117)"/>
<path d="M0 0 C2.97 0.495 2.97 0.495 6 1 C6.33 1.99 6.66 2.98 7 4 C5.02 4.33 3.04 4.66 1 5 C0.67 3.35 0.34 1.7 0 0 Z " fill="#6BC28B" transform="translate(151,54)"/>
<path d="M0 0 C1.90608098 3.21182149 2.22266247 5.53882603 2.125 9.25 C2.10695313 10.14203125 2.08890625 11.0340625 2.0703125 11.953125 C2.04710938 12.62859375 2.02390625 13.3040625 2 14 C1.67 14 1.34 14 1 14 C0.67 12.02 0.34 10.04 0 8 C-0.33 8 -0.66 8 -1 8 C-1.125 2.25 -1.125 2.25 0 0 Z " fill="#ABCCA5" transform="translate(100,84)"/>
<path d="M0 0 C1.20628008 2.33214148 2.1654738 4.49642139 3 7 C2.01 7 1.02 7 0 7 C-0.66 8.65 -1.32 10.3 -2 12 C-3.15957207 8.52128379 -2.77456651 7.65780355 -1.5625 4.3125 C-1.13130859 3.10013672 -1.13130859 3.10013672 -0.69140625 1.86328125 C-0.46324219 1.24839844 -0.23507813 0.63351563 0 0 Z " fill="#BCD1A1" transform="translate(157,82)"/>
<path d="M0 0 C0.33 0 0.66 0 1 0 C1.36923077 7.38461538 1.36923077 7.38461538 -0.5 10.5 C-0.995 10.995 -1.49 11.49 -2 12 C-2.17835515 7.45194365 -1.99785435 4.1205746 0 0 Z " fill="#BDD7B0" transform="translate(146,81)"/>
<path d="M0 0 C-0.33 0.99 -0.66 1.98 -1 3 C-3.31 3 -5.62 3 -8 3 C-8 2.34 -8 1.68 -8 1 C-3.375 -1.125 -3.375 -1.125 0 0 Z " fill="#533314" transform="translate(105,166)"/>
<path d="M0 0 C0.66 0 1.32 0 2 0 C1.25 6.75 1.25 6.75 -1 9 C-2.25541557 5.23375329 -1.37061958 3.62811066 0 0 Z " fill="#49814D" transform="translate(89,90)"/>
<path d="M0 0 C2 2 2 2 2.1953125 3.9453125 C2.13020833 5.96354167 2.06510417 7.98177083 2 10 C1.34 10 0.68 10 0 10 C-1.125 2.25 -1.125 2.25 0 0 Z " fill="#20A17F" transform="translate(56,86)"/>
<path d="M0 0 C2.475 0.495 2.475 0.495 5 1 C4.67 3.31 4.34 5.62 4 8 C3.67 7.34 3.34 6.68 3 6 C2.34 6 1.68 6 1 6 C0.67 4.02 0.34 2.04 0 0 Z " fill="#2BC689" transform="translate(94,63)"/>
<path d="M0 0 C2 3 2 3 1.625 5.1875 C1.41875 5.785625 1.2125 6.38375 1 7 C0.34 7 -0.32 7 -1 7 C-1 7.66 -1 8.32 -1 9 C-1.66 8.67 -2.32 8.34 -3 8 C-2.67 6.02 -2.34 4.04 -2 2 C-1.34 2 -0.68 2 0 2 C0 1.34 0 0.68 0 0 Z " fill="#195E56" transform="translate(130,128)"/>
<path d="M0 0 C-1.485 1.485 -1.485 1.485 -3 3 C-5.31 2.34 -7.62 1.68 -10 1 C-10 0.67 -10 0.34 -10 0 C-2.25 -1.125 -2.25 -1.125 0 0 Z " fill="#D3BB8E" transform="translate(83,116)"/>
<path d="M0 0 C0.99 0.33 1.98 0.66 3 1 C2.34 2.65 1.68 4.3 1 6 C-0.65 6 -2.3 6 -4 6 C-2.68 4.02 -1.36 2.04 0 0 Z " fill="#A6B396" transform="translate(81,101)"/>
<path d="M0 0 C0.99 0.33 1.98 0.66 3 1 C2.67 2.98 2.34 4.96 2 7 C0 6 0 6 -0.6875 4.0625 C-1 2 -1 2 0 0 Z " fill="#C4B992" transform="translate(145,114)"/>
<path d="M0 0 C0.99 0.33 1.98 0.66 3 1 C1.515 4.465 1.515 4.465 0 8 C-1.125 6.25 -1.125 6.25 -2 4 C-1.125 1.75 -1.125 1.75 0 0 Z " fill="#72552F" transform="translate(151,105)"/>
<path d="M0 0 C2 2 2 2 2 5 C2.66 5 3.32 5 4 5 C4 6.65 4 8.3 4 10 C3.67 9.34 3.34 8.68 3 8 C2.34 8 1.68 8 1 8 C0.67 5.36 0.34 2.72 0 0 Z " fill="#7E6439" transform="translate(61,88)"/>
<path d="M0 0 C0.33 0 0.66 0 1 0 C1 2.31 1 4.62 1 7 C-0.32 7 -1.64 7 -3 7 C-2.38722388 4.03824877 -1.74627478 2.61941217 0 0 Z " fill="#26AE75" transform="translate(59,77)"/>
<path d="M0 0 C0.99 0.99 1.98 1.98 3 3 C1.02 3.99 1.02 3.99 -1 5 C-1.66 3.68 -2.32 2.36 -3 1 C-2.01 0.67 -1.02 0.34 0 0 Z " fill="#223835" transform="translate(109,155)"/>
<path d="M0 0 C0.33 0 0.66 0 1 0 C0.67 3.3 0.34 6.6 0 10 C-0.33 10 -0.66 10 -1 10 C-1.33 7.36 -1.66 4.72 -2 2 C-1.34 2 -0.68 2 0 2 C0 1.34 0 0.68 0 0 Z " fill="#2B6354" transform="translate(100,126)"/>
<path d="M0 0 C1.65 0.33 3.3 0.66 5 1 C4.67 1.99 4.34 2.98 4 4 C2.35 4 0.7 4 -1 4 C-0.67 2.68 -0.34 1.36 0 0 Z " fill="#765327" transform="translate(87,104)"/>
<path d="M0 0 C0.66 0.99 1.32 1.98 2 3 C2.66 2.01 3.32 1.02 4 0 C4 1.65 4 3.3 4 5 C2.68 5 1.36 5 0 5 C-0.33 5.66 -0.66 6.32 -1 7 C-0.67 4.69 -0.34 2.38 0 0 Z " fill="#23996D" transform="translate(148,91)"/>
<path d="M0 0 C0.66 0.99 1.32 1.98 2 3 C1.01 4.98 0.02 6.96 -1 9 C-1.33 9 -1.66 9 -2 9 C-1.125 2.25 -1.125 2.25 0 0 Z " fill="#7B9776" transform="translate(143,91)"/>
<path d="M0 0 C2.83022097 3.99560608 1.76210446 7.42737323 1 12 C0.67 12 0.34 12 0 12 C-0.19573608 10.56359829 -0.38127816 9.12580496 -0.5625 7.6875 C-0.66691406 6.88699219 -0.77132812 6.08648437 -0.87890625 5.26171875 C-1 3 -1 3 0 0 Z " fill="#95B192" transform="translate(48,88)"/>
<path d="M0 0 C0.99 0.33 1.98 0.66 3 1 C3 2.98 3 4.96 3 7 C2.01 6.34 1.02 5.68 0 5 C-0.1875 2.375 -0.1875 2.375 0 0 Z " fill="#35CD84" transform="translate(154,57)"/>
</svg>
